<svg width="87" height="65" viewBox="0 0 87 65" fill="none" xmlns="http://www.w3.org/2000/svg" opacity="0.18">
<path d="M70.89 60.9539C70.2142 62.1243 69.2336 63.1384 67.9801 63.8613C66.8114 64.5365 65.4545 64.9258 64.0049 64.9258C62.6533 64.9258 61.2832 64.5842 60.0296 63.8613C59.2823 63.4324 58.6012 62.8763 58.0155 62.2064C58.0155 62.2064 58.0155 62.209 58.0155 62.2116C53.1975 56.7728 47.2903 56.7648 42.4697 62.1852C41.9052 62.8366 41.2241 63.4085 40.4344 63.8613C39.2656 64.5365 37.9088 64.9258 36.4591 64.9258C35.1076 64.9258 33.7374 64.5842 32.4839 63.8613C31.3125 63.1861 30.2975 62.2063 29.574 60.9539C28.8982 59.7861 28.5087 58.4304 28.5087 56.9819C28.5087 56.1214 28.6465 55.2555 28.9353 54.4161C30.4804 49.7981 29.6641 45.9771 26.8152 43.5198C24.4274 41.4624 20.9557 41.4597 18.5679 43.5172C15.7243 45.9665 14.9054 49.7716 16.4319 54.3737C16.7155 55.1919 16.8718 56.0684 16.8718 56.9819C16.8718 58.3324 16.5326 59.7014 15.8065 60.9539C15.1307 62.1243 14.1501 63.1384 12.8966 63.8613C11.7279 64.5365 10.371 64.9258 8.92137 64.9258C7.56979 64.9258 6.19966 64.5842 4.94614 63.8613C3.77477 63.1861 2.75973 62.2063 2.03624 60.9539C1.36044 59.7861 0.970902 58.4304 0.970902 56.9819C0.970902 55.6315 1.31275 54.2625 2.03624 53.01C2.71203 51.8396 3.69261 50.8255 4.94614 50.1026C5.69084 49.671 6.51502 49.3585 7.38692 49.189L7.38162 49.189C14.5264 47.7353 17.484 42.601 15.1572 35.6872C14.8895 34.8928 14.7411 34.0402 14.7411 33.1531C14.7411 31.8027 15.0803 30.4337 15.8065 29.1812C16.4823 28.0108 17.4628 26.9993 18.7163 26.2738C19.8851 25.5985 21.2419 25.2093 22.6916 25.2093C24.0432 25.2093 25.4133 25.5482 26.6668 26.2738C27.8382 26.949 28.8532 27.9287 29.5767 29.1812C30.2525 30.3489 30.6421 31.7047 30.6421 33.1531C30.6421 34.0057 30.5069 34.8663 30.2233 35.7004C27.9045 42.601 30.8541 47.7247 37.975 49.1864C38.8204 49.3506 39.6526 49.6524 40.4397 50.1052C41.1791 50.5316 41.8575 51.0823 42.4406 51.7443C47.2612 57.1991 53.1763 57.207 58.0023 51.7734L58.0023 51.7761C58.5668 51.1274 59.2452 50.558 60.0323 50.1026C61.201 49.4274 62.5579 49.0381 64.0075 49.0381C65.3591 49.0381 66.7266 49.3797 67.9828 50.1026C69.1541 50.7778 70.1691 51.7576 70.8926 53.01C71.5684 54.1778 71.958 55.5335 71.958 56.982C71.958 58.3324 71.6161 59.7014 70.8926 60.9539L70.89 60.9539Z" fill="#8FE3E8"/>
<path d="M49.4046 24.8455C48.5814 25.0096 47.7715 25.3087 47.0039 25.7534C45.834 26.4284 44.8202 27.4077 44.0976 28.6597C43.4227 29.8269 43.0336 31.1821 43.0336 32.6299C43.0336 33.9798 43.3724 35.3483 44.0976 36.6002C44.7726 37.7701 45.7519 38.7839 47.0039 39.5065C48.1712 40.1788 49.5263 40.5679 50.9742 40.5679C52.3241 40.5679 53.6925 40.2264 54.9445 39.5038C55.6829 39.0777 56.3579 38.5298 56.9402 37.8681C61.7548 32.4129 67.6626 32.4023 72.4852 37.8337C73.049 38.4821 73.7266 39.0512 74.5127 39.5038C75.6773 40.1788 77.0325 40.5679 78.4803 40.5679C79.8302 40.5679 81.1986 40.2264 82.4506 39.5038C83.6205 38.8289 84.6343 37.8495 85.3569 36.5976C86.0318 35.4303 86.4209 34.0751 86.4209 32.6273C86.4209 31.2774 86.0795 29.909 85.3569 28.657C84.6819 27.4871 83.7026 26.4734 82.4506 25.7508C81.2833 25.0758 79.9282 24.6867 78.4803 24.6867C77.1304 24.6867 75.762 25.0255 74.51 25.7508C73.7663 26.1795 73.086 26.7327 72.5011 27.3998C69.2746 31.0445 65.5584 32.2488 62.0089 31.0127C59.0365 29.9778 57.3002 26.9736 57.8878 23.8794C58.5892 20.1976 61.4716 17.5852 66.2174 16.6059C67.0671 16.4444 67.9035 16.14 68.6949 15.6821C69.8648 15.0072 70.8786 14.0278 71.6011 12.7759C72.2761 11.6086 72.6652 10.2534 72.6652 8.80557C72.6652 7.45568 72.3237 6.08725 71.6011 4.83528C70.9262 3.66537 69.9469 2.65163 68.6949 1.92904C67.5276 1.25409 66.1724 0.864996 64.7246 0.864996C63.3747 0.864996 62.0063 1.20644 60.7543 1.92904C59.5844 2.60398 58.5707 3.58332 57.8481 4.83528C57.1731 6.00255 56.784 7.35774 56.784 8.80557C56.784 9.6658 56.9243 10.534 57.2102 11.373C59.5209 18.2787 56.5511 23.4003 49.3993 24.8429L49.4046 24.8455Z" fill="#8FE3E8"/>
</svg>
