<svg width="65" height="100" viewBox="0 0 65 100" fill="none" xmlns="http://www.w3.org/2000/svg" opacity="0.18">
<path d="M60.405 15.1275C59.2365 14.4512 57.8799 14.0614 56.4306 14.0614C55.5695 14.0614 54.7004 14.202 53.8578 14.491C53.8578 14.491 53.8605 14.491 53.8631 14.4884C46.9688 16.7954 41.8498 13.844 40.3899 6.72647C40.2256 5.88054 39.9235 5.04788 39.4704 4.26295C38.7948 3.09084 37.8145 2.0752 36.5612 1.35126C35.3927 0.67504 34.0361 0.28522 32.5868 0.28522C31.2355 0.28522 29.8656 0.624655 28.6124 1.35126C27.4412 2.02747 26.4264 3.00864 25.7031 4.26295C25.2739 5.00281 24.9638 5.81957 24.7916 6.68407C23.3449 13.8254 18.2286 16.7954 11.3316 14.4963C11.3316 14.4963 11.3316 14.4963 11.3343 14.4963C10.5209 14.2152 9.64914 14.0614 8.74032 14.0614C7.38902 14.0614 6.01918 14.4009 4.76591 15.1275C3.59479 15.8037 2.58263 16.7848 1.85663 18.0391C1.18098 19.2086 0.791502 20.5663 0.791502 22.0169C0.791502 23.3693 1.13064 24.7403 1.85663 25.9946C2.28322 26.7345 2.82905 27.4107 3.49145 27.9914C8.95494 32.8178 8.96553 38.7393 3.52853 43.5682C2.87938 44.1331 2.31237 44.8119 1.85663 45.5995C1.18098 46.769 0.791503 48.1267 0.791504 49.5773C0.791504 50.9297 1.13329 52.3007 1.85663 53.555C2.53228 54.7271 3.51265 55.7427 4.76591 56.4667C5.93439 57.1429 7.29099 57.5327 8.74032 57.5327C10.0916 57.5327 11.4588 57.1906 12.7147 56.4667C13.8859 55.7905 14.9007 54.8093 15.624 53.555C16.2996 52.3855 16.6891 51.0278 16.6891 49.5773C16.6891 48.2248 16.3473 46.8565 15.624 45.5995C15.1921 44.8517 14.6357 44.1675 13.9653 43.5815C13.9653 43.5815 13.9706 43.5815 13.9733 43.5841C8.531 38.7658 8.52306 32.8575 13.9415 28.0339C14.596 27.469 15.1683 26.7849 15.624 25.9946C16.0559 25.2494 16.3685 24.4247 16.5381 23.5496L16.5381 23.5549C17.9874 16.4268 23.0985 13.4648 29.9849 15.7559C30.8009 16.0397 31.6753 16.1935 32.5868 16.1935C33.4426 16.1935 34.3037 16.0556 35.1383 15.7718C42.0406 13.4541 47.1676 16.4056 48.6275 23.5337C48.6275 23.5337 48.6275 23.5311 48.6275 23.5284C48.7891 24.3743 49.0938 25.207 49.5495 25.9946C50.2252 27.1667 51.2056 28.1824 52.4588 28.9063C53.6273 29.5825 54.9839 29.9723 56.4332 29.9723C57.7845 29.9723 59.1544 29.6329 60.4076 28.9063C61.5788 28.2301 62.5936 27.2489 63.3169 25.9946C63.9926 24.8252 64.3821 23.4674 64.3821 22.0169C64.3821 20.6644 64.0402 19.2935 63.3169 18.0391C62.6413 16.867 61.6609 15.8514 60.4076 15.1275L60.405 15.1275Z" fill="#8FE3E8"/>
<path d="M36.0393 29.5109C37.2097 30.1867 38.2239 31.1672 38.9468 32.4208C39.622 33.5895 40.0112 34.9464 40.0112 36.396C40.0112 37.7476 39.6697 39.1177 38.9468 40.3712C38.5178 41.1186 37.9617 41.7997 37.2918 42.3853C37.2918 42.3853 37.2944 42.3853 37.2971 42.3853C31.8582 47.2033 31.8503 53.1105 37.2706 57.9312C37.922 58.4957 38.494 59.1768 38.9468 59.9665C39.622 61.1352 40.0112 62.4921 40.0112 63.9417C40.0112 65.2933 39.6697 66.6635 38.9468 67.917C38.2715 69.0884 37.2918 70.1034 36.0393 70.8269C34.8716 71.5026 33.5158 71.8922 32.0674 71.8922C31.2068 71.8922 30.3409 71.7544 29.5015 71.4655C24.8835 69.9205 21.0626 70.7368 18.6053 73.5857C16.5478 75.9735 16.5452 79.4452 18.6026 81.833C21.052 84.6766 24.8571 85.4955 29.4592 83.969C30.2774 83.6854 31.1539 83.529 32.0674 83.529C33.4178 83.529 34.7868 83.8683 36.0393 84.5944C37.2097 85.2702 38.2239 86.2507 38.9468 87.5043C39.622 88.673 40.0112 90.0299 40.0112 91.4795C40.0112 92.8311 39.6697 94.2012 38.9468 95.4547C38.2715 96.6261 37.2918 97.6412 36.0393 98.3646C34.8716 99.0404 33.5158 99.43 32.0674 99.43C30.7169 99.43 29.348 99.0881 28.0955 98.3646C26.9251 97.6888 25.9109 96.7083 25.188 95.4547C24.7564 94.71 24.444 93.8859 24.2745 93.014L24.2745 93.0193C22.8208 85.8744 17.6864 82.9169 10.7726 85.2437C9.97826 85.5114 9.12562 85.6598 8.23856 85.6598C6.8881 85.6598 5.51912 85.3205 4.26664 84.5944C3.09625 83.9186 2.08474 82.9381 1.3592 81.6845C0.683981 80.5158 0.294725 79.1589 0.294725 77.7093C0.294725 76.3577 0.633669 74.9876 1.35921 73.7341C2.03443 72.5627 3.01417 71.5477 4.26664 70.8242C5.43439 70.1484 6.79013 69.7588 8.23856 69.7588C9.09119 69.7588 9.95177 69.894 10.7859 70.1775C17.6864 72.4964 22.8102 69.5468 24.2719 62.4258C24.436 61.5804 24.7379 60.7483 25.1907 59.9612C25.617 59.2218 26.1678 58.5434 26.8298 57.9603C32.2845 53.1397 32.2925 47.2245 26.8589 42.3986L26.8615 42.3986C26.2128 41.8341 25.6435 41.1557 25.188 40.3686C24.5128 39.1999 24.1236 37.843 24.1236 36.3933C24.1236 35.0418 24.4652 33.6743 25.188 32.4181C25.8633 31.2467 26.843 30.2317 28.0955 29.5082C29.2632 28.8324 30.619 28.4429 32.0674 28.4429C33.4179 28.4429 34.7868 28.7847 36.0393 29.5082L36.0393 29.5109Z" fill="#8FE3E8"/>
</svg>
